# xmcd CD database file
#
# Track frame offsets:
#	150
#	11077
#	26972
#	42412
#	64602
#	76132
#	86792
#	108360
#	124955
#	134577
#	149885
#	165885
#	183345
#
# Disc length: 2610 seconds
#
# Revision: 0
# Processed by: cddbd v1.4PL0 Copyright (c) Steve Scherf et al.
# Submitted via: CDex 1.40Beta9
#
DISCID=b70a300d
DTITLE=Keystone Cops - Slide And Smile
DYEAR=1992
DGENRE=Country
TTITLE0=Whole Lot Of Trouble
TTITLE1=Blue Van Blues
TTITLE2=Beer And Vodka
TTITLE3=Heavy Rain Falling
TTITLE4=Red Hot Gal
TTITLE5=Keystone Cops Rag
TTITLE6=Walk Home
TTITLE7=Feet On The Ground
TTITLE8=Ham And Eggs
TTITLE9=With Me You Won't Cry A Tear
TTITLE10=If You Can't Set My Heart
TTITLE11=East Sea Suffle
TTITLE12=I Wanna Boogie
EXTD=YEAR: 1992 ID3G: 2
EXTT0=
EXTT1=
EXTT2=
EXTT3=
EXTT4=
EXTT5=
EXTT6=
EXTT7=
EXTT8=
EXTT9=
EXTT10=
EXTT11=
EXTT12=
PLAYORDER=
